<svg width="20" height="20" viewBox="0 0 20 20" fill="none" xmlns="http://www.w3.org/2000/svg">
<path d="M16.6938 16.6625H3.30627C2.60205 16.6617 1.9269 16.3816 1.42894 15.8836C0.930971 15.3856 0.650851 14.7105 0.650024 14.0063V5.99375C0.650851 5.28952 0.930971 4.61438 1.42894 4.11641C1.9269 3.61845 2.60205 3.33833 3.30627 3.3375H16.6938C17.398 3.33833 18.0732 3.61845 18.5711 4.11641C19.0691 4.61438 19.3492 5.28952 19.35 5.99375V14.0063C19.3492 14.7105 19.0691 15.3856 18.5711 15.8836C18.0732 16.3816 17.398 16.6617 16.6938 16.6625ZM3.30627 4.275C2.85043 4.275 2.41326 4.45608 2.09093 4.77841C1.76861 5.10074 1.58752 5.53791 1.58752 5.99375V14.0063C1.58752 14.4621 1.76861 14.8993 2.09093 15.2216C2.41326 15.5439 2.85043 15.725 3.30627 15.725H16.6938C17.1496 15.725 17.5868 15.5439 17.9091 15.2216C18.2314 14.8993 18.4125 14.4621 18.4125 14.0063V5.99375C18.4125 5.53791 18.2314 5.10074 17.9091 4.77841C17.5868 4.45608 17.1496 4.275 16.6938 4.275H3.30627Z" fill="#222222"/>
<path d="M9.99998 11.9C9.42172 11.9009 8.85892 11.7133 8.39686 11.3656L1.09998 5.84687C1.04843 5.81069 1.00469 5.76449 0.971389 5.71102C0.938087 5.65756 0.915901 5.59794 0.906157 5.53571C0.896412 5.47348 0.899308 5.40993 0.914672 5.34885C0.930037 5.28776 0.957554 5.2304 0.99558 5.18019C1.03361 5.12998 1.08136 5.08795 1.136 5.0566C1.19063 5.02526 1.25102 5.00524 1.31356 4.99776C1.3761 4.99027 1.4395 4.99547 1.49999 5.01304C1.56048 5.0306 1.6168 5.06018 1.66561 5.1L8.96248 10.625C9.26213 10.8487 9.62605 10.9695 9.99998 10.9695C10.3739 10.9695 10.7378 10.8487 11.0375 10.625L18.3344 5.1C18.3832 5.06018 18.4395 5.0306 18.5 5.01304C18.5605 4.99547 18.6239 4.99027 18.6864 4.99776C18.7489 5.00524 18.8093 5.02526 18.864 5.0566C18.9186 5.08795 18.9664 5.12998 19.0044 5.18019C19.0424 5.2304 19.0699 5.28776 19.0853 5.34885C19.1007 5.40993 19.1035 5.47348 19.0938 5.53571C19.0841 5.59794 19.0619 5.65756 19.0286 5.71102C18.9953 5.76449 18.9515 5.81069 18.9 5.84687L11.6031 11.3656C11.141 11.7133 10.5782 11.9009 9.99998 11.9Z" fill="#222222"/>
<path d="M1.30318 15.3563C1.20811 15.3564 1.11524 15.3276 1.0369 15.2738C0.958564 15.2199 0.898456 15.1435 0.864555 15.0547C0.830654 14.9658 0.824562 14.8688 0.847088 14.7764C0.869614 14.6841 0.919693 14.6007 0.990679 14.5375L6.74068 9.40938C6.8335 9.3265 6.95545 9.28389 7.0797 9.29092C7.20394 9.29795 7.3203 9.35405 7.40318 9.44688C7.48606 9.5397 7.52867 9.66165 7.52164 9.78589C7.51461 9.91014 7.4585 10.0265 7.36568 10.1094L1.61568 15.2375C1.53029 15.3152 1.41862 15.3576 1.30318 15.3563ZM18.6969 15.3563C18.5815 15.3576 18.4698 15.3152 18.3844 15.2375L12.6344 10.1094C12.5416 10.0265 12.4855 9.91014 12.4785 9.78589C12.4714 9.66165 12.514 9.5397 12.5969 9.44688C12.6798 9.35405 12.7962 9.29795 12.9204 9.29092C13.0447 9.28389 13.1666 9.3265 13.2594 9.40938L19.0063 14.5375C19.0773 14.6007 19.1274 14.6841 19.1499 14.7764C19.1724 14.8688 19.1663 14.9658 19.1324 15.0547C19.0985 15.1435 19.0384 15.2199 18.9601 15.2738C18.8817 15.3276 18.7889 15.3564 18.6938 15.3563H18.6969Z" fill="#222222"/>
</svg>
