<svg width="31" height="31" viewBox="0 0 31 31" fill="none" xmlns="http://www.w3.org/2000/svg">
<g clip-path="url(#clip0_1022_2824)">
<path d="M30.2515 15.4246C30.2515 23.4332 23.5945 29.933 15.3921 29.933C7.18967 29.933 0.532608 23.4332 0.532608 15.4246C0.532608 7.41592 7.18967 0.916138 15.3921 0.916138C23.5945 0.916138 30.2515 7.41592 30.2515 15.4246Z" fill="#FCFCFC"/>
<path d="M15.5001 0C6.93858 0 3.05176e-05 6.93945 3.05176e-05 15.5C3.05176e-05 24.0609 6.93854 31 15.5001 31C24.0616 31 31.0001 24.0609 31.0001 15.5C31 6.93945 24.0615 0 15.5001 0ZM15.5001 5.16668C21.2077 5.16668 25.8334 9.79361 25.8334 15.5C25.8334 21.2064 21.2077 25.8334 15.5001 25.8334C9.7924 25.8334 5.16671 21.2064 5.16671 15.5C5.16671 9.79357 9.79236 5.16668 15.5001 5.16668ZM15.5001 10.3333C12.6462 10.3333 10.3334 12.6468 10.3334 15.5C10.3334 18.3535 12.6463 20.6666 15.5001 20.6666C18.3539 20.6666 20.6667 18.3535 20.6667 15.5C20.6667 12.6468 18.3539 10.3333 15.5001 10.3333ZM28.2647 27.3529C27.7694 27.3529 27.353 27.7425 27.353 28.2647C27.353 28.7926 27.7693 29.1765 28.2647 29.1765C28.7541 29.1765 29.1765 28.7926 29.1765 28.2647C29.1765 27.7426 28.7541 27.3529 28.2647 27.3529ZM28.2647 27.5049C28.672 27.5049 28.9942 27.8325 28.9942 28.2647C28.9942 28.7036 28.672 29.0245 28.2647 29.0245C27.8514 29.0245 27.5353 28.7036 27.5353 28.2647C27.5354 27.8325 27.8514 27.5049 28.2647 27.5049ZM27.9153 27.7404V28.789H28.0748V28.3331H28.2572L28.5307 28.789H28.7055L28.4091 28.3255C28.558 28.3049 28.6827 28.2249 28.6827 28.0368C28.6827 27.8283 28.5611 27.7404 28.318 27.7404H27.9153ZM28.0748 27.8772H28.2875C28.397 27.8772 28.5155 27.8991 28.5155 28.0292C28.5155 28.1906 28.3985 28.1963 28.2648 28.1963H28.0748V27.8772H28.0748Z" fill="#830FDE"/>
</g>
<defs>
<clipPath id="clip0_1022_2824">
<rect width="31" height="31" fill="white"/>
</clipPath>
</defs>
</svg>
