<svg width="20" height="20" viewBox="0 0 20 20" fill="none" xmlns="http://www.w3.org/2000/svg">
<g clip-path="url(#clip0_276_1242)">
<path d="M13.125 3.75V3.125C13.125 2.2962 12.7958 1.50134 12.2097 0.915291C11.6237 0.32924 10.8288 0 10 0C9.1712 0 8.37634 0.32924 7.79029 0.915291C7.20424 1.50134 6.875 2.2962 6.875 3.125V3.75C6.37772 3.75 5.90081 3.94754 5.54917 4.29917C5.19754 4.65081 5 5.12772 5 5.625V10.625C5 11.1223 5.19754 11.5992 5.54917 11.9508C5.90081 12.3025 6.37772 12.5 6.875 12.5H13.125C13.6223 12.5 14.0992 12.3025 14.4508 11.9508C14.8025 11.5992 15 11.1223 15 10.625V5.625C15 5.12772 14.8025 4.65081 14.4508 4.29917C14.0992 3.94754 13.6223 3.75 13.125 3.75ZM8.125 3.125C8.125 2.62772 8.32254 2.15081 8.67417 1.79917C9.02581 1.44754 9.50272 1.25 10 1.25C10.4973 1.25 10.9742 1.44754 11.3258 1.79917C11.6775 2.15081 11.875 2.62772 11.875 3.125V3.75H8.125V3.125ZM13.75 10.625C13.75 10.7908 13.6842 10.9497 13.5669 11.0669C13.4497 11.1842 13.2908 11.25 13.125 11.25H6.875C6.70924 11.25 6.55027 11.1842 6.43306 11.0669C6.31585 10.9497 6.25 10.7908 6.25 10.625V5.625C6.25 5.45924 6.31585 5.30027 6.43306 5.18306C6.55027 5.06585 6.70924 5 6.875 5H13.125C13.2908 5 13.4497 5.06585 13.5669 5.18306C13.6842 5.30027 13.75 5.45924 13.75 5.625V10.625ZM15 20H8.75C8.58424 20 8.42527 19.9342 8.30806 19.8169C8.19085 19.6997 8.125 19.5408 8.125 19.375C8.125 19.2092 8.19085 19.0503 8.30806 18.9331C8.42527 18.8158 8.58424 18.75 8.75 18.75H15C15.4973 18.75 15.9742 18.5525 16.3258 18.2008C16.6775 17.8492 16.875 17.3723 16.875 16.875C16.875 16.3777 16.6775 15.9008 16.3258 15.5492C15.9742 15.1975 15.4973 15 15 15H5C4.50272 15 4.02581 15.1975 3.67417 15.5492C3.32254 15.9008 3.125 16.3777 3.125 16.875C3.125 17.3723 3.32254 17.8492 3.67417 18.2008C4.02581 18.5525 4.50272 18.75 5 18.75H6.25C6.41576 18.75 6.57473 18.8158 6.69194 18.9331C6.80915 19.0503 6.875 19.2092 6.875 19.375C6.875 19.5408 6.80915 19.6997 6.69194 19.8169C6.57473 19.9342 6.41576 20 6.25 20H5C4.1712 20 3.37634 19.6708 2.79029 19.0847C2.20424 18.4987 1.875 17.7038 1.875 16.875C1.875 16.0462 2.20424 15.2513 2.79029 14.6653C3.37634 14.0792 4.1712 13.75 5 13.75H15C15.8288 13.75 16.6237 14.0792 17.2097 14.6653C17.7958 15.2513 18.125 16.0462 18.125 16.875C18.125 17.7038 17.7958 18.4987 17.2097 19.0847C16.6237 19.6708 15.8288 20 15 20Z" fill="#464646"/>
<path d="M10 17.5C9.87639 17.5 9.75555 17.4633 9.65277 17.3947C9.54999 17.326 9.46988 17.2284 9.42258 17.1142C9.37527 17 9.36289 16.8743 9.38701 16.7531C9.41113 16.6318 9.47065 16.5205 9.55806 16.4331C9.64547 16.3456 9.75683 16.2861 9.87807 16.262C9.99931 16.2379 10.125 16.2503 10.2392 16.2976C10.3534 16.3449 10.451 16.425 10.5197 16.5278C10.5883 16.6305 10.625 16.7514 10.625 16.875C10.625 17.0408 10.5592 17.1997 10.4419 17.3169C10.3247 17.4342 10.1658 17.5 10 17.5ZM7.5 17.5C7.37639 17.5 7.25555 17.4633 7.15277 17.3947C7.04999 17.326 6.96988 17.2284 6.92258 17.1142C6.87527 17 6.86289 16.8743 6.88701 16.7531C6.91113 16.6318 6.97065 16.5205 7.05806 16.4331C7.14547 16.3456 7.25683 16.2861 7.37807 16.262C7.49931 16.2379 7.62497 16.2503 7.73918 16.2976C7.85338 16.3449 7.95099 16.425 8.01967 16.5278C8.08834 16.6305 8.125 16.7514 8.125 16.875C8.125 17.0408 8.05915 17.1997 7.94194 17.3169C7.82473 17.4342 7.66576 17.5 7.5 17.5ZM5 17.5C4.87639 17.5 4.75555 17.4633 4.65277 17.3947C4.54999 17.326 4.46988 17.2284 4.42258 17.1142C4.37527 17 4.36289 16.8743 4.38701 16.7531C4.41113 16.6318 4.47065 16.5205 4.55806 16.4331C4.64547 16.3456 4.75683 16.2861 4.87807 16.262C4.99931 16.2379 5.12497 16.2503 5.23918 16.2976C5.35338 16.3449 5.45099 16.425 5.51967 16.5278C5.58834 16.6305 5.625 16.7514 5.625 16.875C5.625 17.0408 5.55915 17.1997 5.44194 17.3169C5.32473 17.4342 5.16576 17.5 5 17.5ZM15 17.5C14.8764 17.5 14.7555 17.4633 14.6528 17.3947C14.55 17.326 14.4699 17.2284 14.4226 17.1142C14.3753 17 14.3629 16.8743 14.387 16.7531C14.4111 16.6318 14.4706 16.5205 14.5581 16.4331C14.6455 16.3456 14.7568 16.2861 14.8781 16.262C14.9993 16.2379 15.125 16.2503 15.2392 16.2976C15.3534 16.3449 15.451 16.425 15.5197 16.5278C15.5883 16.6305 15.625 16.7514 15.625 16.875C15.625 17.0408 15.5592 17.1997 15.4419 17.3169C15.3247 17.4342 15.1658 17.5 15 17.5ZM12.5 17.5C12.3764 17.5 12.2555 17.4633 12.1528 17.3947C12.05 17.326 11.9699 17.2284 11.9226 17.1142C11.8753 17 11.8629 16.8743 11.887 16.7531C11.9111 16.6318 11.9707 16.5205 12.0581 16.4331C12.1455 16.3456 12.2568 16.2861 12.3781 16.262C12.4993 16.2379 12.625 16.2503 12.7392 16.2976C12.8534 16.3449 12.951 16.425 13.0197 16.5278C13.0883 16.6305 13.125 16.7514 13.125 16.875C13.125 17.0408 13.0592 17.1997 12.9419 17.3169C12.8247 17.4342 12.6658 17.5 12.5 17.5ZM10 9.375C9.83424 9.375 9.67527 9.30915 9.55806 9.19194C9.44085 9.07473 9.375 8.91576 9.375 8.75V7.5C9.375 7.33424 9.44085 7.17527 9.55806 7.05806C9.67527 6.94085 9.83424 6.875 10 6.875C10.1658 6.875 10.3247 6.94085 10.4419 7.05806C10.5592 7.17527 10.625 7.33424 10.625 7.5V8.75C10.625 8.91576 10.5592 9.07473 10.4419 9.19194C10.3247 9.30915 10.1658 9.375 10 9.375Z" fill="#464646"/>
</g>
<defs>
<clipPath id="clip0_276_1242">
<rect width="20" height="20" fill="white"/>
</clipPath>
</defs>
</svg>
